<svg width="100" height="100" viewBox="0 0 100 100" fill="none" xmlns="http://www.w3.org/2000/svg">
<rect width="100" height="100" fill="#278A41"/>
<path d="M58.5781 75.4828C59.65 75.6615 60.4539 75.7508 60.9898 75.7508C61.5258 75.7508 62.049 75.6997 62.5594 75.5977C63.0953 75.4701 63.5674 75.2786 63.9758 75.0234C64.8945 74.462 65.3539 73.5815 65.3539 72.382C65.3539 71.3867 65.0476 70.2766 64.4351 69.0516L60.8367 60.132H36.6047L32.3172 71.0039C31.9089 71.9992 31.7047 72.7266 31.7047 73.1859C31.7047 73.6198 31.7685 73.9516 31.8961 74.1813C32.0492 74.3854 32.2661 74.5641 32.5469 74.7172C32.8531 74.8703 33.2232 74.9979 33.657 75.1L35.2266 75.5211C36.9109 75.8018 37.9956 76.057 38.4805 76.2867C39.4758 76.7716 39.9734 77.4862 39.9734 78.4305C39.9734 79.1195 39.782 79.7065 39.3992 80.1914C38.9143 80.0638 38.4677 80 38.0594 80H22.4789C19.0846 80 17.3875 79.0685 17.3875 77.2055C17.3875 76.3378 17.5789 75.6359 17.9617 75.1C18.906 75.3552 19.6971 75.4828 20.3352 75.4828C20.9987 75.4828 21.5474 75.3807 21.9812 75.1766C22.4406 74.9724 22.8745 74.6279 23.2828 74.143C23.9719 73.3008 24.7758 71.6164 25.6945 69.0898L44.6055 23.3055C45.1414 22.0805 46.6599 21.2383 49.1609 20.7789C49.85 20.6513 50.5773 20.5875 51.343 20.5875C52.8997 20.5875 53.8568 21.0086 54.2141 21.8508L58.0422 31.4211C65.4177 48.8263 69.6797 58.9836 70.8281 61.893L74.2734 70.9273C74.9625 72.8924 75.5367 74.1047 75.9961 74.5641C76.4555 75.0234 76.9531 75.3424 77.4891 75.5211C78.025 75.6997 78.5737 75.8529 79.1351 75.9805C79.7221 76.0826 80.2325 76.2229 80.6664 76.4016C81.6362 76.8354 82.1211 77.499 82.1211 78.3922C82.1211 79.0813 81.9297 79.6682 81.5469 80.1531C81.062 80.0255 80.6281 79.9617 80.2453 79.9617H61.9851C60.6836 79.9617 59.6628 79.8086 58.9226 79.5023C58.2081 79.1706 57.8508 78.6729 57.8508 78.0094C57.8508 76.8609 58.0932 76.0188 58.5781 75.4828ZM58.6164 54.6961L48.5867 29.8899L38.7484 54.6961H58.6164Z" fill="white"/>
</svg>
